<?xml version="1.0" encoding="UTF-8" standalone="no" ?>
<!DOCTYPE svg PUBLIC "-//W3C//DTD SVG 1.1//EN" "http://www.w3.org/Graphics/SVG/1.1/DTD/svg11.dtd">
<svg xmlns="http://www.w3.org/2000/svg" xmlns:xlink="http://www.w3.org/1999/xlink" version="1.1" width="185.51000000000002" height="179.38" xml:space="preserve">
<desc>Created with Fabric.js 1.6.0-rc.1</desc>
<defs></defs>
<g style="stroke: none; stroke-width: 1; stroke-dasharray: none; stroke-linecap: butt; stroke-linejoin: miter; stroke-miterlimit: 10; fill: none; fill-rule: nonzero; opacity: 1;" transform="translate(10 10) scale(0.27 0.26)" >
  <path d="M 306 0 C 137.012 0 0 137.012 0 306 c 0 169.026 137.012 306 306 306 s 306 -136.974 306 -306 C 612 137.012 474.988 0 306 0 z M 306 573.75 C 158.125 573.75 38.25 453.875 38.25 306 C 38.25 158.125 158.125 38.25 306 38.25 c 147.875 0 267.75 119.875 267.75 267.75 C 573.75 453.875 453.875 573.75 306 573.75 z" style="stroke: none; stroke-width: 1; stroke-dasharray: none; stroke-linecap: butt; stroke-linejoin: miter; stroke-miterlimit: 10; fill: rgb(0,0,0); fill-rule: nonzero; opacity: 1;" transform="" stroke-linecap="round" />
</g>
<g style="stroke: none; stroke-width: 1; stroke-dasharray: none; stroke-linecap: butt; stroke-linejoin: miter; stroke-miterlimit: 10; fill: none; fill-rule: nonzero; opacity: 1;" transform="translate(33.730000000000025 44.00000000000001) scale(0.24 0.24)" >
  <path d="M 349.705 346.249 l -17.928 -6.942 l -90.353 143.059 h 165.647 C 407.072 411.168 375.531 368.928 349.705 346.249 z" style="stroke: none; stroke-width: 1; stroke-dasharray: none; stroke-linecap: butt; stroke-linejoin: miter; stroke-miterlimit: 10; fill: #000004; fill-rule: nonzero; opacity: 1;" transform=" matrix(1 0 0 1 0 0) " stroke-linecap="round" />
  <polygon points="169.71,331.76 241.43,482.37 313.14,331.76 " style="stroke: none; stroke-width: 1; stroke-dasharray: none; stroke-linecap: butt; stroke-linejoin: miter; stroke-miterlimit: 10; fill: #FFFFFF; fill-rule: nonzero; opacity: 1;" transform="  matrix(1 0 0 1 0 0) "/>
  <path d="M 261.408 339.292 h -19.983 h -19.983 c -6.445 0 -12.589 -2.748 -16.866 -7.56 l -38.445 -30.088 v 33.882 l 75.294 56.471 l 75.294 -56.471 v -33.882 l -38.438 30.088 C 273.997 336.536 267.868 339.292 261.408 339.292 z" style="stroke: none; stroke-width: 1; stroke-dasharray: none; stroke-linecap: butt; stroke-linejoin: miter; stroke-miterlimit: 10; fill: #FFEBB8; fill-rule: nonzero; opacity: 1;" transform=" matrix(1 0 0 1 0 0) " stroke-linecap="round" />
  <path d="M 204.568 331.725 l -38.438 -30.08 v 33.882 l 75.294 56.471 v -52.706 h -19.983 C 214.989 339.292 208.853 336.536 204.568 331.725 z" style="stroke: none; stroke-width: 1; stroke-dasharray: none; stroke-linecap: butt; stroke-linejoin: miter; stroke-miterlimit: 10; fill: #FFF4D1; fill-rule: nonzero; opacity: 1;" transform=" matrix(1 0 0 1 0 0) " stroke-linecap="round" />
  <path d="M 354.366 166.131 c -7.529 0 -7.529 8.365 -7.529 8.365 v -17.355 c -26.165 5.512 -63.631 8.99 -105.412 8.99 s -79.255 -3.479 -105.412 -8.983 v 69.203 l 30.118 75.294 l 38.438 30.088 c 4.277 4.811 10.421 7.56 16.866 7.56 h 19.991 h 19.983 c 6.438 0 12.589 -2.748 16.866 -7.56 l 38.445 -30.088 l 24.147 -60.363 c 21.338 -1.544 28.559 -33.92 28.559 -58.413 C 369.425 174.496 361.895 166.131 354.366 166.131 z" style="stroke: none; stroke-width: 1; stroke-dasharray: none; stroke-linecap: butt; stroke-linejoin: miter; stroke-miterlimit: 10; fill: #FFF4D1; fill-rule: nonzero; opacity: 1;" transform=" matrix(1 0 0 1 0 0) " stroke-linecap="round" />
  <path d="M 136.013 174.496 c 0 0 0 -8.365 -7.529 -8.365 c -7.529 0 -15.059 8.365 -15.059 16.738 c 0 24.486 7.206 56.87 28.559 58.406 l 24.147 60.371 l 38.438 30.088 c 4.277 4.811 10.421 7.56 16.866 7.56 h 19.991 V 166.131 c -41.781 0 -79.255 -3.479 -105.412 -8.983 V 174.496 z" style="stroke: none; stroke-width: 1; stroke-dasharray: none; stroke-linecap: butt; stroke-linejoin: miter; stroke-miterlimit: 10; fill: #FFFFFF; fill-rule: nonzero; opacity: 1;" transform=" matrix(1 0 0 1 0 0) " stroke-linecap="round" />
  <path d="M 429.487 309.189 c 0 -18.974 -21.128 -40.094 -40.102 -40.094 c 18.982 0 40.102 -21.12 40.102 -40.094 c 0 18.982 21.128 40.094 40.087 40.094 C 450.599 269.095 429.487 290.215 429.487 309.189 z" style="stroke: none; stroke-width: 1; stroke-dasharray: none; stroke-linecap: butt; stroke-linejoin: miter; stroke-miterlimit: 10; fill: #FFFFFF; fill-rule: nonzero; opacity: 1;" transform=" matrix(1 0 0 1 0 0) " stroke-linecap="round" />
  <path d="M 33.048 98.366 c 0 -15.413 -17.152 -32.565 -32.565 -32.565 c 15.413 0 32.565 -17.152 32.565 -32.565 c 0 15.413 17.152 32.565 32.565 32.565 C 50.208 65.801 33.048 82.953 33.048 98.366 z" style="stroke: none; stroke-width: 1; stroke-dasharray: none; stroke-linecap: butt; stroke-linejoin: miter; stroke-miterlimit: 10; fill: #FFFFFF; fill-rule: nonzero; opacity: 1;" transform=" matrix(1 0 0 1 0 0) " stroke-linecap="round" />
  <path d="M 218.837 181.174 c 0 -8.312 -6.746 -15.059 -15.059 -15.059 c -0.015 0 -0.03 0 -0.045 0 c 0 0.158 0.045 0.309 0.045 0.467 c 0 8.305 -6.724 15.029 -15.014 15.059 c 0.248 8.094 6.852 14.592 15.014 14.592 C 212.09 196.233 218.837 189.487 218.837 181.174 z" style="stroke: none; stroke-width: 1; stroke-dasharray: none; stroke-linecap: butt; stroke-linejoin: miter; stroke-miterlimit: 10; fill: #000004; fill-rule: nonzero; opacity: 1;" transform=" matrix(1 0 0 1 0 0) " stroke-linecap="round" />
  <path d="M 294.085 181.174 c 0 -8.312 -6.746 -15.059 -15.059 -15.059 c -0.015 0 -0.03 0 -0.06 0 c 0.015 0.158 0.06 0.309 0.06 0.467 c 0 8.305 -6.724 15.029 -15.014 15.059 c 0.249 8.094 6.852 14.592 15.014 14.592 C 287.339 196.233 294.085 189.487 294.085 181.174 z" style="stroke: none; stroke-width: 1; stroke-dasharray: none; stroke-linecap: butt; stroke-linejoin: miter; stroke-miterlimit: 10; fill: #000004; fill-rule: nonzero; opacity: 1;" transform=" matrix(1 0 0 1 0 0) " stroke-linecap="round" />
  <path d="M 203.778 256.469 h 75.294 c 0 0 0 22.588 -37.647 22.588 S 203.778 256.469 203.778 256.469 z" style="stroke: none; stroke-width: 1; stroke-dasharray: none; stroke-linecap: butt; stroke-linejoin: miter; stroke-miterlimit: 10; fill: #F7B90C; fill-rule: nonzero; opacity: 1;" transform=" matrix(1 0 0 1 0 0) " stroke-linecap="round" />
  <path d="M 128.484 136.013 c 0 16.233 0 6.573 0 15.059 c 0 0 7.529 52.706 15.059 67.765 c 0 0 0 0 7.529 0 c 0 -10.413 0 -57.126 0 -82.824 H 128.484 z" style="stroke: none; stroke-width: 1; stroke-dasharray: none; stroke-linecap: butt; stroke-linejoin: miter; stroke-miterlimit: 10; fill: #000004; fill-rule: nonzero; opacity: 1;" transform=" matrix(1 0 0 1 0 0) " stroke-linecap="round" />
  <path d="M 354.366 143.542 c 0 16.233 0 -0.956 0 7.529 c 0 0 -7.529 52.706 -15.059 67.765 c 0 0 0 0 -7.529 0 c 0 -10.413 0 -49.596 0 -75.294 H 354.366 z" style="stroke: none; stroke-width: 1; stroke-dasharray: none; stroke-linecap: butt; stroke-linejoin: miter; stroke-miterlimit: 10; fill: #000004; fill-rule: nonzero; opacity: 1;" transform=" matrix(1 0 0 1 0 0) " stroke-linecap="round" />
  <path d="M 354.366 121.617 c 0 -4.804 0 -10.564 0 -17.604 c 0 -23.416 6.942 -62.735 11.4 -85.587 c 0.851 -4.412 -0.309 -8.983 -3.177 -12.461 c -2.869 -3.464 -7.123 -5.481 -11.625 -5.481 c -27.211 0 -78.238 0 -109.538 0 s -82.327 0 -109.538 0 c -4.503 0 -8.757 2.018 -11.625 5.489 c -2.861 3.471 -4.028 8.041 -3.177 12.461 c 4.465 22.844 11.4 62.163 11.4 85.579 c 0 7.048 0 12.808 0 17.604 c -18.808 4.676 -30.118 10.526 -30.118 16.904 c 0 15.247 64.053 27.61 143.059 27.61 s 143.059 -12.363 143.059 -27.61 C 384.484 132.143 373.174 126.293 354.366 121.617 z" style="stroke: none; stroke-width: 1; stroke-dasharray: none; stroke-linecap: butt; stroke-linejoin: miter; stroke-miterlimit: 10; fill: #000004; fill-rule: nonzero; opacity: 1;" transform=" matrix(1 0 0 1 0 0) " stroke-linecap="round" />
  <path d="M 241.425 239.121 c -37.647 -37.647 -45.176 30.118 -97.882 0 c 37.647 45.176 97.882 15.059 97.882 15.059 s 60.235 30.118 97.882 -15.059 C 286.601 269.231 279.072 201.474 241.425 239.121 z" style="stroke: none; stroke-width: 1; stroke-dasharray: none; stroke-linecap: butt; stroke-linejoin: miter; stroke-miterlimit: 10; fill: #000004; fill-rule: nonzero; opacity: 1;" transform=" matrix(1 0 0 1 0 0) " stroke-linecap="round" />
  <path d="M 128.484 104.013 c 0 0.663 0 1.242 0 1.882 h 112.941 V 0.484 c -31.3 0 -82.327 0 -109.538 0 c -4.503 0 -8.757 2.018 -11.625 5.489 c -2.861 3.471 -4.028 8.041 -3.177 12.461 C 121.549 41.278 128.484 80.597 128.484 104.013 z" style="stroke: none; stroke-width: 1; stroke-dasharray: none; stroke-linecap: butt; stroke-linejoin: miter; stroke-miterlimit: 10; fill: #000004; fill-rule: nonzero; opacity: 1;" transform=" matrix(1 0 0 1 0 0) " stroke-linecap="round" />
  <path d="M 241.425 98.366 c -44.273 0 -84.239 -0.67 -112.941 -5.798 v 27.61 c 28.702 5.12 68.668 5.798 112.941 5.798 V 98.366 z" style="stroke: none; stroke-width: 1; stroke-dasharray: none; stroke-linecap: butt; stroke-linejoin: miter; stroke-miterlimit: 10; fill: #FFFFFF; fill-rule: nonzero; opacity: 1;" transform=" matrix(1 0 0 1 0 0) " stroke-linecap="round" />
  <path d="M 241.425 98.366 c 44.273 0 84.239 -0.67 112.941 -5.798 v 27.61 c -28.71 5.12 -68.668 5.798 -112.941 5.798 V 98.366 z" style="stroke: none; stroke-width: 1; stroke-dasharray: none; stroke-linecap: butt; stroke-linejoin: miter; stroke-miterlimit: 10; fill: #FFF4D1; fill-rule: nonzero; opacity: 1;" transform=" matrix(1 0 0 1 0 0) " stroke-linecap="round" />
  <polygon points="241.43,482.37 316.72,324.25 346.84,339.31 361.89,392.01 314.2,392.01 339.31,422.13 271.54,482.37 " style="stroke: none; stroke-width: 1; stroke-dasharray: none; stroke-linecap: butt; stroke-linejoin: miter; stroke-miterlimit: 10; fill: #2e7fd8; fill-rule: nonzero; opacity: 1;" transform="  matrix(1 0 0 1 0 0) "/>
  <path d="M 151.072 339.307 l -17.928 6.942 c -25.818 22.679 -57.367 64.919 -57.367 136.117 h 165.647 L 151.072 339.307 z" style="stroke: none; stroke-width: 1; stroke-dasharray: none; stroke-linecap: butt; stroke-linejoin: miter; stroke-miterlimit: 10; fill: #000004; fill-rule: nonzero; opacity: 1;" transform=" matrix(1 0 0 1 0 0) " stroke-linecap="round" />
  <path d="M 166.131 301.645 v 22.603 c 0 0 -90.353 37.647 -90.353 158.118 c -37.647 0 -75.294 0 -75.294 0 C -7.52 394.272 85.348 328.638 166.131 301.645 z" style="stroke: none; stroke-width: 1; stroke-dasharray: none; stroke-linecap: butt; stroke-linejoin: miter; stroke-miterlimit: 10; fill: #FC6100; fill-rule: nonzero; opacity: 1;" transform=" matrix(1 0 0 1 0 0) " stroke-linecap="round" />
  <path d="M 316.719 301.645 v 22.603 c 0 0 90.353 37.647 90.353 158.118 c 37.647 0 75.294 0 75.294 0 C 490.37 394.272 397.502 328.638 316.719 301.645 z" style="stroke: none; stroke-width: 1; stroke-dasharray: none; stroke-linecap: butt; stroke-linejoin: miter; stroke-miterlimit: 10; fill: #FC6100; fill-rule: nonzero; opacity: 1;" transform=" matrix(1 0 0 1 0 0) " stroke-linecap="round" />
  <polygon points="241.43,482.37 166.13,324.25 136.01,339.31 120.95,392.01 168.65,392.01 143.54,422.13 211.31,482.37 " style="stroke: none; stroke-width: 1; stroke-dasharray: none; stroke-linecap: butt; stroke-linejoin: miter; stroke-miterlimit: 10; fill: #2e7fd8; fill-rule: nonzero; opacity: 1;" transform="  matrix(1 0 0 1 0 0) "/>
  <path d="M 309.189 369.425 l -50.673 23.048 c -4.134 -4.856 -10.225 -7.989 -17.092 -7.989 c -6.867 0 -12.951 3.132 -17.092 7.989 l -50.673 -23.048 v 75.294 l 50.673 -23.032 c 4.141 4.841 10.225 7.974 17.092 7.974 c 6.867 0 12.958 -3.132 17.092 -7.974 l 50.673 23.032 V 369.425 z" style="stroke: none; stroke-width: 1; stroke-dasharray: none; stroke-linecap: butt; stroke-linejoin: miter; stroke-miterlimit: 10; fill: #f2f229; fill-rule: nonzero; opacity: 1;" transform=" matrix(1 0 0 1 0 0) " stroke-linecap="round" />
</g>
</svg>